<?xml version="1.0" standalone="no"?><!DOCTYPE svg PUBLIC "-//W3C//DTD SVG 1.1//EN" "http://www.w3.org/Graphics/SVG/1.1/DTD/svg11.dtd"><svg t="1553262063419" class="icon" style="" viewBox="0 0 1024 1024" version="1.1" xmlns="http://www.w3.org/2000/svg" p-id="2585" xmlns:xlink="http://www.w3.org/1999/xlink" width="200" height="200"><defs><style type="text/css"></style></defs><path d="M716 701.8H536.2l0.4-99.3c0-2.8-0.5-5.4-1.3-7.9 59.8-5.2 118.2-30.6 164.1-76.2 104.3-103.5 104.9-271.9 1.3-376.2-103.4-104.3-271.9-104.9-376.1-1.4-104.3 103.5-104.9 271.9-1.4 376.2 46.4 46.7 105.8 72.6 166.7 77.7-0.8 2.4-1.3 5-1.3 7.7l-0.4 99.5H308c-13.2 0-24 10.8-24 24s10.8 24 24 24h180.1l-0.7 186.5c0 13.2 10.7 24 23.9 24.1 13.2 0 24-10.7 24.1-23.9l0.7-186.7H716c13.2 0 24-10.8 24-24 0-13.3-10.8-24.1-24-24.1zM358.4 174.9C443.8 90 581.9 90.5 666.7 176s84.3 223.5-1.1 308.3-223.5 84.3-308.3-1.1-84.3-223.5 1.1-308.3z" fill="#FF3EC9" p-id="2586"></path></svg>