<?xml version="1.0" standalone="no"?><!DOCTYPE svg PUBLIC "-//W3C//DTD SVG 1.1//EN" "http://www.w3.org/Graphics/SVG/1.1/DTD/svg11.dtd"><svg t="1553263262597" class="icon" style="" viewBox="0 0 1034 1024" version="1.1" xmlns="http://www.w3.org/2000/svg" p-id="1110" xmlns:xlink="http://www.w3.org/1999/xlink" width="201.953125" height="200"><defs><style type="text/css"></style></defs><path d="M152.079208 871.920792c202.772277 202.772277 517.069307 202.772277 719.841584 0s202.772277-517.069307 0-719.841584-517.069307-202.772277-719.841584 0-202.772277 527.207921 0 719.841584z m415.683168-405.544554h172.356436s50.693069 0 50.693069 60.831683-60.831683 50.693069-60.831683 50.693069H567.762376v172.356436s0 60.831683-60.831683 60.831683-50.693069-60.831683-50.693069-60.831683V577.90099H283.881188s-60.831683 0-60.831683-50.693069 60.831683-60.831683 60.831683-60.831683h172.356436V294.019802s0-60.831683 50.693069-60.831683 60.831683 60.831683 60.831683 60.831683v172.356436z" fill="#229FFF" p-id="1111"></path></svg>