<?xml version="1.0" standalone="no"?><!DOCTYPE svg PUBLIC "-//W3C//DTD SVG 1.1//EN" "http://www.w3.org/Graphics/SVG/1.1/DTD/svg11.dtd"><svg t="1553262609493" class="icon" style="" viewBox="0 0 1025 1024" version="1.1" xmlns="http://www.w3.org/2000/svg" p-id="12734" xmlns:xlink="http://www.w3.org/1999/xlink" width="200.1953125" height="200"><defs><style type="text/css"></style></defs><path d="M928.8 238.734 781.606 238.734 704.8 117l-384 0L244 238.734 96.8 238.734c-32 0-96 30.432-96 90.349l0 487.891c0 50.406 48 91.296 89.331 91.296l840.666 0c42.003 0 94.003-42.797 94.003-90.349L1024.8 330.03C1024.8 299.605 992.8 238.734 928.8 238.734zM960.794 817.928c0 12.006-20.461 28.8-30.003 29.485L90.317 847.413c-7.405-0.57-25.517-14.291-25.517-30.432L64.8 329.09c0-19.27 27.232-28.992 32-29.485L244 299.605l36.237 0 18.643-29.562 58.157-92.173 313.638 0 57.127 92.192 17.594 29.543 36.218 0L928.8 299.605c22.56 0 31.686 28.026 31.994 30.432L960.794 817.928zM512.8 330.037c-123.718 0-224 95.373-224 213.037s100.282 213.037 224 213.037 224.006-95.373 224.006-213.037C736.8 425.41 636.518 330.037 512.8 330.037zM512.8 695.234c-88.211 0-159.994-68.263-159.994-152.166 0-83.898 71.782-152.173 159.994-152.173 88.218 0 160 68.269 160 152.173S601.018 695.234 512.8 695.234z" p-id="12735"></path></svg>