<?xml version="1.0" standalone="no"?><!DOCTYPE svg PUBLIC "-//W3C//DTD SVG 1.1//EN" "http://www.w3.org/Graphics/SVG/1.1/DTD/svg11.dtd"><svg t="1553263027936" class="icon" style="" viewBox="0 0 1024 1024" version="1.1" xmlns="http://www.w3.org/2000/svg" p-id="27396" xmlns:xlink="http://www.w3.org/1999/xlink" width="200" height="200"><defs><style type="text/css"></style></defs><path d="M770.5 137.5c-165.8 53.5-140.8-11.3-234-27.3-132.3-22.6-94.4 133.1-94.4 133.1l91.6 338.6c-28.5-17.7-62.5-28-98.8-28-102.1 0-184.9 81-184.9 180.9 0 100 82.7 180.9 184.9 180.9 102.1 0 184.9-81 184.9-180.9 0-2.6-0.1-5.2-0.2-7.8 0.3-0.7 0.5-1.5 0.7-2.5C626 691.7 536.4 274 536.4 274s94.7 50.7 164.2 3.4c79.9-54.2 75.4-141.6 69.9-139.9z m0 0" p-id="27397"></path></svg>