<?xml version="1.0" encoding="utf-8"?>
<!-- Generator: Adobe Illustrator 16.0.4, SVG Export Plug-In . SVG Version: 6.00 Build 0)  -->
<!DOCTYPE svg PUBLIC "-//W3C//DTD SVG 1.1//EN" "http://www.w3.org/Graphics/SVG/1.1/DTD/svg11.dtd">
<svg version="1.1" id="Layer_1" xmlns="http://www.w3.org/2000/svg" xmlns:xlink="http://www.w3.org/1999/xlink" x="0px" y="0px"
	 width="32px" height="32px" viewBox="0 0 32 32" enable-background="new 0 0 32 32" xml:space="preserve">
<path fill="#fff" d="M18.255,16l11.28-11.278c0.619-0.621,0.619-1.636,0-2.256c-0.622-0.621-1.636-0.621-2.257,0L16,13.745
	L4.72,2.466c-0.621-0.621-1.636-0.621-2.256,0c-0.619,0.62-0.619,1.635,0,2.256L13.745,16L2.464,27.278
	c-0.619,0.621-0.619,1.635,0,2.258c0.62,0.619,1.635,0.619,2.256,0L16,18.255l11.278,11.281c0.621,0.619,1.635,0.619,2.257,0
	c0.619-0.623,0.619-1.637,0-2.258L18.255,16z"/>
</svg>
